<?xml version="1.0" standalone="no"?>
<!DOCTYPE svg PUBLIC "-//W3C//DTD SVG 20010904//EN"
 "http://www.w3.org/TR/2001/REC-SVG-20010904/DTD/svg10.dtd">
<svg version="1.0" xmlns="http://www.w3.org/2000/svg"
 width="800.000000pt" height="800.000000pt" viewBox="0 0 800.000000 800.000000"
 preserveAspectRatio="xMidYMid meet">
<metadata>
Created by potrace 1.14, written by Peter Selinger 2001-2017
</metadata>
<g transform="translate(0.000000,800.000000) scale(0.100000,-0.100000)"
fill="#000000" stroke="none">
<path d="M3795 7989 c-142 -8 -323 -27 -415 -44 -14 -3 -39 -7 -56 -10 -30 -5
-157 -29 -201 -39 -105 -23 -320 -86 -447 -131 -570 -203 -1072 -521 -1502
-953 -525 -527 -885 -1164 -1058 -1872 -72 -296 -104 -552 -112 -900 -10 -385
35 -731 147 -1135 216 -775 696 -1504 1330 -2018 493 -400 1082 -680 1704
-811 298 -62 398 -71 815 -71 403 0 465 5 732 55 1050 195 1986 811 2592 1707
369 546 592 1157 661 1811 31 285 14 775 -35 1062 -146 846 -524 1584 -1115
2176 -391 392 -817 675 -1340 891 -176 73 -554 185 -715 213 -30 5 -82 14
-114 19 -122 21 -306 41 -479 51 -192 11 -185 11 -392 -1z m-1447 -1030 c86
-35 122 -67 122 -108 0 -50 38 -178 69 -233 35 -62 38 -88 14 -110 -30 -25
-49 -27 -109 -13 -33 7 -60 12 -62 11 -4 -4 -44 -210 -87 -446 -45 -249 -39
-225 -70 -246 -21 -14 -32 -15 -73 -5 -114 28 -152 42 -162 61 -9 16 -140 462
-140 475 0 3 -11 5 -24 5 -50 0 -162 32 -183 52 -30 28 -29 60 6 176 20 66 32
131 36 202 7 109 13 126 52 141 26 10 183 -39 213 -66 10 -9 44 -102 76 -208
32 -105 60 -183 62 -172 2 11 23 101 47 200 24 99 47 200 51 224 7 46 41 91
69 91 9 0 51 -14 93 -31z m522 -16 c50 -25 96 -56 103 -67 9 -15 12 -124 12
-405 l0 -384 32 -21 c47 -31 52 -66 14 -113 -19 -24 -31 -52 -33 -77 -2 -28
-10 -44 -30 -59 -23 -17 -32 -18 -85 -9 -93 16 -168 48 -184 79 -11 21 -14 93
-12 399 l3 372 -28 7 c-46 11 -72 43 -72 88 0 31 12 59 55 127 52 83 79 108
117 109 9 1 58 -20 108 -46z m1276 12 c241 -118 314 -418 168 -695 -65 -123
-124 -167 -259 -191 l-69 -12 51 -47 51 -47 83 5 c73 4 86 2 100 -14 32 -37
32 -60 0 -87 -36 -30 -114 -41 -239 -36 -68 4 -86 8 -130 36 l-51 32 -13 -27
c-10 -20 -30 -31 -90 -51 l-78 -25 -27 20 c-29 22 -153 251 -153 284 0 20 27
54 50 62 10 3 10 21 1 89 -11 73 -10 100 4 185 38 223 87 349 170 442 55 61
98 83 195 99 107 17 167 12 236 -22z m866 24 c100 -20 124 -29 146 -52 65 -69
250 -660 283 -900 20 -142 2 -158 -153 -138 -92 12 -141 30 -151 54 -7 19
-137 107 -232 157 l-80 42 -28 -89 c-16 -48 -34 -117 -41 -152 -9 -50 -18 -69
-39 -85 -24 -18 -32 -19 -85 -9 -83 16 -157 50 -170 78 -13 27 5 123 43 235
14 41 25 75 25 77 0 2 -11 3 -24 3 -38 0 -73 17 -91 43 -35 54 24 107 118 107
l45 0 62 146 c70 162 110 233 188 329 40 50 52 73 52 100 0 24 7 39 22 49 27
19 39 19 110 5z m1126 -14 c30 -9 71 -32 95 -53 23 -20 36 -30 30 -22 -18 20
-16 35 2 20 13 -11 14 -10 9 5 -5 13 -4 16 4 11 7 -4 12 -2 12 4 0 6 5 8 12 4
7 -5 9 -2 5 8 -3 10 3 20 19 28 21 12 29 10 74 -18 58 -36 64 -38 57 -18 -4
11 -1 13 11 9 12 -5 10 2 -8 22 l-25 29 32 -22 c100 -70 396 -362 490 -484 26
-35 40 -57 31 -50 -10 8 -18 9 -22 3 -4 -6 -14 -7 -23 -4 -10 4 -2 -15 21 -52
35 -54 36 -58 20 -76 -9 -10 -23 -19 -31 -19 -7 0 -13 -4 -13 -9 0 -9 -68 -56
-82 -56 -3 0 -10 -4 -15 -9 -4 -5 -3 -6 3 -3 7 4 15 0 18 -9 3 -8 2 -13 -3 -9
-5 3 -11 0 -13 -6 -2 -6 -43 33 -90 87 -47 55 -116 131 -153 169 -51 54 -46
47 21 -30 144 -166 199 -244 184 -258 -10 -10 -12 -8 -6 8 l6 20 -16 -20 c-8
-11 -21 -27 -27 -35 -7 -8 -23 -21 -37 -28 -66 -34 -78 -44 -95 -81 -17 -39
-18 -39 -37 -21 -12 11 -17 24 -13 31 5 7 4 10 -2 6 -5 -4 -42 31 -81 76 -39
45 -110 120 -158 167 l-88 85 90 -95 c127 -135 270 -316 240 -304 -9 3 -16 10
-16 15 0 5 -20 -11 -45 -36 -25 -25 -52 -45 -59 -45 -7 0 -19 -7 -26 -15 -7
-8 -20 -15 -29 -15 -10 0 -22 -14 -29 -32 -7 -19 -15 -28 -20 -23 -37 41 -182
205 -202 228 -49 57 -283 267 -297 267 -8 0 9 -19 39 -42 78 -61 260 -241 338
-333 69 -83 113 -144 94 -133 -6 4 -26 -8 -44 -27 -19 -19 -42 -35 -52 -35
-10 0 -21 -7 -24 -15 -4 -8 -16 -15 -29 -15 -12 0 -30 -9 -40 -20 -10 -11 -26
-18 -37 -17 -10 2 -71 57 -134 123 -98 100 -104 105 -42 34 85 -98 151 -179
163 -200 7 -12 3 -11 -18 3 -22 14 -25 14 -21 2 5 -11 2 -13 -10 -9 -11 4 -16
1 -16 -11 0 -9 -4 -13 -10 -10 -5 3 -10 1 -10 -5 0 -6 -5 -8 -11 -5 -6 4 -17
-2 -25 -14 -8 -12 -24 -21 -35 -21 -10 0 -27 -9 -36 -20 -12 -13 -24 -18 -40
-14 -13 4 -23 2 -23 -4 0 -11 30 -26 44 -23 5 1 4 -5 -4 -13 -14 -17 -21 -21
-17 -8 1 4 -78 88 -176 187 -99 98 -180 187 -183 198 -3 19 -3 19 18 1 20 -19
21 -19 13 5 -5 16 -4 21 4 17 6 -4 11 -2 11 5 0 8 9 5 23 -7 12 -10 16 -12 10
-4 -19 21 -16 34 5 19 15 -13 16 -12 4 3 -8 10 -17 16 -20 15 -4 -1 -7 3 -7 8
0 6 3 9 7 8 16 -6 7 14 -57 127 -36 63 -68 125 -71 138 -15 56 19 92 86 92
l28 0 4 208 c5 244 15 285 100 377 53 58 84 79 153 102 52 17 249 10 323 -12z
m-542 -1234 c49 -43 113 -107 143 -142 30 -35 64 -75 75 -88 12 -13 16 -21 9
-18 -16 10 -43 -2 -43 -18 0 -8 -4 -17 -10 -20 -6 -3 -7 1 -4 9 8 21 -49 22
-66 1 -8 -9 -21 -13 -36 -9 -18 5 -24 2 -24 -10 0 -18 -30 -22 -46 -6 -8 8
-15 6 -24 -5 -7 -8 -18 -15 -24 -15 -6 0 -2 7 8 15 11 8 16 18 11 22 -4 5 -10
2 -12 -5 -3 -6 -8 -10 -12 -7 -5 2 -8 -6 -7 -18 1 -14 7 -22 19 -22 19 0 39
-24 31 -37 -8 -13 -74 54 -71 71 1 9 -3 16 -9 16 -21 0 -126 103 -118 116 5 9
2 11 -9 6 -9 -3 -19 -2 -21 2 -5 7 10 8 49 2 6 -1 3 -6 -5 -11 -13 -8 -13 -11
-1 -22 11 -11 14 -11 18 0 3 9 13 3 28 -18 20 -26 24 -28 35 -15 11 13 10 14
-6 9 -10 -4 -16 -4 -12 0 3 4 -2 27 -13 51 -18 40 -17 75 1 75 5 0 11 14 15
30 4 17 11 30 17 30 6 0 7 7 3 18 -4 9 -9 27 -10 40 -3 19 0 22 13 17 27 -11
55 -15 48 -7 -4 4 -11 7 -14 7 -4 1 -18 5 -31 9 -18 6 -21 10 -10 17 8 5 17 9
20 9 4 0 47 -35 95 -79z m524 -86 c14 -19 14 -19 -2 -6 -10 7 -18 18 -18 24 0
6 1 8 3 6 1 -2 9 -13 17 -24z m-669 -192 c13 -16 12 -17 -3 -4 -10 7 -18 15
-18 17 0 8 8 3 21 -13z m-1206 -119 c266 -44 514 -174 716 -374 260 -259 399
-592 399 -960 0 -362 -132 -688 -382 -946 -292 -301 -672 -445 -1088 -412
-402 31 -765 236 -999 564 -163 229 -245 489 -243 774 1 389 132 711 396 976
319 319 746 453 1201 378z m-1794 -2752 c-14 -26 -14 -42 -1 -42 5 0 12 11 16
25 6 25 9 23 81 -49 42 -41 72 -79 69 -85 -4 -5 -13 -8 -20 -5 -8 3 -17 0 -21
-5 -3 -6 -11 -9 -16 -6 -5 4 -9 -1 -9 -9 0 -9 5 -16 10 -16 16 0 12 -30 -5
-36 -9 -4 -15 -19 -15 -35 0 -16 -5 -29 -11 -29 -13 0 -8 -52 6 -62 5 -4 0 -8
-13 -8 -20 0 -22 -4 -16 -22 6 -21 5 -21 -32 7 -60 44 -200 183 -255 251 -47
60 -65 92 -33 60 19 -20 34 -12 35 17 1 17 2 18 6 5 5 -19 52 -25 69 -9 5 5
20 11 34 13 14 2 24 9 23 15 -1 6 14 13 33 15 32 4 34 3 18 -9 -10 -7 -12 -13
-6 -13 7 0 21 9 33 21 18 18 19 23 6 37 -28 33 -29 47 -2 21 23 -22 25 -30 16
-47z m100 -29 c13 -16 12 -17 -3 -4 -10 7 -18 15 -18 17 0 8 8 3 21 -13z
m-326 -134 c52 -60 204 -209 285 -279 25 -22 7 -17 -20 5 -8 7 -26 16 -40 19
-14 4 -20 4 -13 -1 6 -4 15 -21 18 -36 6 -21 4 -27 -9 -27 -10 0 -16 -9 -16
-25 0 -14 -7 -28 -15 -31 -8 -4 -15 -16 -15 -29 0 -16 -9 -25 -32 -33 -18 -5
-25 -10 -15 -11 18 -1 25 -21 6 -21 -6 0 -7 -5 -2 -12 69 -112 -258 177 -382
337 -34 44 -65 86 -69 93 -11 19 1 14 25 -10 l21 -23 -7 22 c-5 18 -3 22 8 17
8 -3 21 1 28 9 7 8 22 12 33 9 12 -3 17 -1 13 5 -9 14 10 28 46 37 15 3 27 13
27 21 0 11 7 14 25 9 25 -6 36 10 13 19 -7 3 -4 5 7 6 12 0 43 -27 80 -70z
m426 -6 c12 -16 12 -17 -2 -6 -9 7 -20 9 -24 5 -5 -4 -5 -1 -1 6 9 16 11 15
27 -5z m-522 -323 c75 -74 157 -153 182 -175 25 -22 37 -34 27 -26 -20 16 -25
2 -6 -17 9 -9 9 -15 -1 -24 -10 -11 -11 -10 -6 5 5 11 2 17 -8 17 -20 0 -40
-27 -33 -45 3 -8 -5 -25 -19 -39 -14 -14 -25 -30 -25 -36 0 -5 -4 -10 -10 -10
-5 0 -10 -9 -10 -20 0 -11 -6 -23 -14 -26 -8 -3 -13 -15 -11 -26 4 -18 1 -17
-33 8 -173 130 -385 343 -476 478 -14 21 -26 44 -26 50 0 6 4 5 9 -2 6 -11 16
-7 43 17 20 17 42 31 50 31 8 0 23 9 32 19 10 11 24 17 31 15 7 -3 20 4 28 16
9 13 21 18 33 14 18 -5 18 -5 1 6 -9 6 -14 16 -11 22 4 6 31 -17 62 -53 30
-35 116 -125 191 -199z m-499 102 c0 -25 270 -307 445 -465 107 -96 143 -130
114 -109 -16 12 -61 4 -60 -11 3 -27 -1 -37 -15 -37 -9 0 -18 -9 -21 -20 -3
-11 -9 -20 -14 -20 -5 0 -9 -6 -9 -12 -1 -21 -59 -79 -73 -73 -6 4 -3 -1 7 -9
11 -9 15 -16 9 -16 -24 0 -205 151 -323 269 -114 114 -239 262 -268 318 -10
18 -9 20 6 17 10 -3 33 10 56 31 22 19 44 35 49 35 5 0 20 9 34 20 14 11 30
17 36 13 6 -4 8 0 4 11 -4 9 -3 15 2 12 14 -9 23 25 10 40 -8 10 -8 14 0 14 6
0 11 -4 11 -8z m-164 -279 c93 -106 373 -385 462 -461 72 -62 81 -73 39 -50
-20 10 -21 10 -8 -5 7 -10 9 -17 4 -17 -5 0 -22 -20 -37 -45 -16 -25 -32 -45
-36 -45 -4 0 -13 -13 -20 -29 -6 -16 -21 -38 -31 -47 -19 -17 -20 -17 -13 2 5
15 4 16 -5 4 -7 -11 -5 -21 12 -39 29 -33 -61 31 -173 122 -67 54 -74 59 -35
21 28 -27 82 -78 120 -113 42 -38 61 -61 48 -57 -18 6 -22 4 -17 -8 3 -8 -3
-19 -15 -26 -12 -6 -21 -17 -21 -25 0 -8 -9 -19 -20 -25 -11 -6 -20 -17 -20
-25 0 -8 -7 -15 -15 -15 -18 0 -20 -17 -2 -23 6 -2 9 -7 5 -11 -6 -7 -26 3
-100 52 -34 22 -39 23 -53 8 -16 -15 -9 -22 18 -17 5 1 6 -3 2 -9 -3 -5 9 -24
27 -41 28 -27 25 -26 -17 7 -148 113 -322 277 -449 424 -98 113 -153 185 -118
156 13 -11 32 -20 43 -21 12 -1 25 -8 30 -16 5 -8 9 -10 9 -5 0 5 -18 35 -40
68 -43 64 -49 84 -25 74 8 -3 14 -2 13 2 -3 10 47 62 61 62 6 0 21 11 33 25
11 13 25 22 31 18 5 -3 4 5 -3 18 -6 13 19 -10 57 -51 37 -41 90 -97 117 -125
l48 -50 -44 55 c-51 62 -141 180 -151 196 -3 6 0 11 8 11 8 0 12 -4 9 -9 -14
-22 15 -4 34 22 13 17 29 30 37 30 8 0 15 4 15 8 0 5 12 15 28 23 15 8 33 22
40 32 7 9 18 14 24 11 7 -5 9 -2 5 8 -6 16 0 28 14 28 4 0 38 -35 75 -77z"/>
<path d="M2226 6955 c-8 -9 -18 -32 -21 -53 -4 -20 -27 -125 -52 -232 -64
-274 -64 -272 -69 -268 -2 3 -33 101 -69 219 -36 118 -71 219 -79 224 -7 6
-52 24 -100 40 l-88 30 -24 -28 c-21 -25 -24 -37 -24 -116 0 -67 -6 -110 -27
-177 -34 -114 -40 -166 -19 -183 19 -16 119 -40 168 -41 l37 0 25 -82 c14 -46
46 -155 71 -242 25 -88 50 -165 55 -171 6 -7 48 -22 95 -35 130 -35 122 -44
169 206 77 418 88 469 95 477 5 5 37 1 71 -8 72 -19 110 -10 110 25 0 11 -16
51 -35 88 -24 45 -41 97 -52 157 -8 50 -22 98 -31 107 -15 18 -150 78 -176 78
-8 0 -21 -7 -30 -15z m132 -46 c34 -15 64 -34 66 -41 2 -7 10 -51 19 -98 10
-53 30 -111 52 -154 48 -93 40 -103 -65 -76 -44 11 -77 15 -80 10 -6 -10 -34
-152 -96 -485 -21 -110 -43 -206 -49 -213 -18 -20 -174 24 -186 52 -5 12 -34
110 -64 218 -48 171 -80 273 -91 287 -2 2 -10 -2 -19 -9 -12 -10 -28 -10 -82
0 -82 15 -103 25 -103 49 0 9 14 63 30 118 20 66 33 136 38 204 7 99 8 104 31
107 24 4 135 -32 158 -50 7 -6 29 -62 49 -127 19 -64 56 -181 81 -261 l46
-145 33 158 c18 87 44 200 58 250 14 51 30 121 36 157 18 102 20 102 138 49z"/>
<path d="M2722 6953 c-37 -31 -112 -165 -112 -198 0 -36 24 -62 66 -74 l29 -7
0 -386 c0 -311 3 -388 14 -401 16 -20 159 -67 201 -67 38 0 60 24 60 64 0 21
11 48 30 74 17 23 30 49 30 57 0 8 -18 27 -40 41 l-40 27 6 316 c3 174 2 352
-3 396 l-8 79 -85 48 c-93 52 -117 57 -148 31z m129 -45 c69 -38 79 -47 85
-77 4 -18 5 -192 2 -385 -2 -193 -3 -358 -1 -366 2 -9 21 -27 43 -40 22 -14
40 -27 40 -31 0 -3 -9 -14 -21 -25 -29 -26 -49 -68 -49 -102 0 -48 -23 -50
-147 -11 l-61 20 -7 52 c-4 29 -6 205 -4 392 l4 340 -44 21 c-76 36 -76 56 -3
169 43 68 58 85 75 85 5 0 44 -19 88 -42z"/>
<path d="M3908 6959 c-182 -27 -283 -177 -343 -513 -16 -87 -16 -111 -6 -194
13 -100 14 -99 -21 -117 -36 -18 -27 -58 42 -188 70 -133 79 -139 161 -112 68
23 92 47 84 86 -8 37 4 37 41 -2 55 -58 98 -73 209 -72 157 0 216 24 195 77
-10 27 -11 27 -100 25 -82 -3 -92 -1 -117 21 -61 54 -103 94 -103 101 0 3 28
9 63 12 149 15 219 58 280 175 55 105 80 206 75 316 -3 80 -7 100 -40 168 -44
93 -102 153 -188 196 -68 34 -114 39 -232 21z m220 -39 c214 -108 281 -370
158 -623 -19 -40 -49 -89 -66 -109 -39 -47 -120 -78 -223 -85 -43 -3 -80 -9
-82 -14 -7 -11 41 -65 107 -120 l58 -48 64 6 c77 7 118 -1 110 -22 -3 -8 -22
-19 -42 -25 -46 -13 -222 -13 -255 -1 -14 5 -58 39 -98 75 -40 36 -73 65 -75
63 -1 -1 3 -27 9 -58 5 -31 8 -63 5 -71 -9 -21 -116 -52 -133 -38 -15 13 -118
202 -129 238 -6 19 -2 25 28 37 33 14 35 17 28 48 -4 17 -7 86 -7 152 0 305
127 572 288 604 139 29 182 27 255 -9z"/>
<path d="M3895 6849 c-20 -18 -52 -66 -75 -113 -57 -116 -82 -218 -83 -351
l-2 -110 40 -3 c45 -4 72 -24 77 -56 4 -29 83 -69 122 -61 95 18 180 150 211
325 27 151 -29 288 -151 366 -66 42 -93 43 -139 3z m133 -25 c85 -57 142 -167
142 -274 0 -57 -32 -184 -59 -239 -29 -56 -75 -106 -115 -125 -32 -15 -38 -15
-75 0 -24 9 -43 25 -47 37 -11 39 -45 67 -80 67 -28 0 -33 4 -39 31 -15 69 29
289 80 394 39 82 92 145 121 145 11 0 43 -16 72 -36z"/>
<path d="M3912 6806 c-68 -77 -127 -253 -139 -413 l-6 -83 32 0 c36 0 91 -46
91 -75 0 -9 15 -22 36 -31 33 -14 38 -13 75 8 74 41 137 178 146 318 6 91 -20
171 -75 232 -33 36 -97 78 -121 78 -5 0 -22 -15 -39 -34z"/>
<path d="M4913 6963 c-8 -2 -13 -22 -13 -45 0 -33 -8 -49 -49 -96 -81 -95
-113 -150 -186 -319 -75 -174 -73 -173 -153 -173 -32 0 -49 -6 -67 -24 -39
-39 -11 -86 51 -86 64 0 65 -3 33 -94 -39 -111 -60 -216 -48 -237 11 -21 107
-59 170 -66 58 -7 75 9 84 79 4 29 23 101 42 161 l34 108 107 -56 c114 -61
230 -138 238 -160 8 -20 49 -32 147 -45 117 -16 122 -13 114 95 -10 143 -84
425 -184 700 -78 216 -87 228 -193 249 -77 16 -105 18 -127 9z m104 -27 c40
-7 83 -21 96 -29 23 -15 92 -179 154 -367 47 -143 122 -457 129 -538 l7 -82
-26 0 c-14 0 -60 5 -100 11 -68 10 -79 15 -125 58 -50 46 -225 152 -313 190
l-47 19 -41 -136 c-23 -76 -41 -147 -41 -160 0 -34 -18 -62 -39 -62 -32 0
-148 39 -161 55 -14 17 3 102 50 239 16 50 30 93 30 98 0 4 -23 8 -51 8 -63 0
-89 13 -82 40 5 20 30 28 112 32 l43 3 77 177 c60 136 93 197 145 266 36 50
73 96 82 103 10 8 13 21 9 40 -6 28 -1 49 13 49 4 0 40 -6 79 -14z"/>
<path d="M4977 6628 c-76 -132 -162 -330 -153 -353 2 -7 17 -16 32 -19 15 -4
88 -36 162 -72 74 -35 137 -62 139 -60 17 16 -122 525 -146 541 -5 3 -20 -14
-34 -37z m63 -115 c37 -116 94 -343 87 -349 -3 -3 -45 15 -93 39 -49 24 -110
52 -136 62 -27 10 -48 23 -48 29 0 36 134 316 151 316 5 0 22 -44 39 -97z"/>
<path d="M4943 6463 c-50 -108 -73 -160 -73 -168 0 -3 6 -5 13 -5 6 0 57 -20
111 -45 55 -25 101 -43 103 -42 8 9 -90 367 -101 367 -1 0 -25 -48 -53 -107z"/>
<path d="M5837 6960 c-100 -26 -173 -88 -221 -189 l-31 -66 0 -217 0 -218 -41
0 c-54 0 -90 -27 -81 -61 8 -28 137 -249 137 -234 0 6 -27 60 -60 120 -34 61
-59 119 -58 130 3 16 13 21 58 25 l55 5 5 225 5 225 33 68 c66 133 170 185
347 173 130 -8 167 -19 218 -64 l41 -37 -23 33 c-29 42 -55 58 -112 71 -68 15
-229 22 -272 11z"/>
<path d="M5860 6833 c-64 -65 -86 -127 -94 -273 l-7 -115 63 -12 c34 -7 64
-10 66 -8 2 2 -22 12 -54 21 l-57 19 6 108 c5 87 12 120 33 168 35 78 81 119
135 119 62 0 90 -19 142 -95 15 -22 27 -34 27 -26 0 25 -74 114 -106 127 -19
8 -50 14 -70 14 -31 0 -45 -8 -84 -47z"/>
<path d="M5881 6802 c-46 -49 -68 -114 -76 -228 l-7 -91 49 -13 c63 -17 68
-17 66 -2 -2 6 1 11 5 10 4 -2 23 14 40 34 38 42 61 44 110 10 46 -33 40 -17
-10 28 -35 31 -40 40 -30 52 6 8 10 17 7 19 -2 3 5 5 16 6 12 1 17 -3 13 -9
-4 -7 -2 -8 4 -4 6 4 8 14 5 23 -4 10 -2 14 4 10 6 -4 8 4 5 21 -5 24 -4 26
12 13 15 -13 16 -12 6 15 -33 85 -93 144 -147 144 -29 0 -43 -8 -72 -38z m130
-239 c12 -16 12 -17 -2 -6 -9 7 -20 9 -24 5 -5 -4 -5 -1 -1 6 9 16 11 15 27
-5z"/>
<path d="M6120 6710 c0 -5 5 -10 11 -10 5 0 7 5 4 10 -3 6 -8 10 -11 10 -2 0
-4 -4 -4 -10z"/>
<path d="M6315 6710 c3 -5 8 -10 11 -10 2 0 4 5 4 10 0 6 -5 10 -11 10 -5 0
-7 -4 -4 -10z"/>
<path d="M6360 6678 c0 -3 39 -40 88 -83 48 -43 74 -64 57 -46 -33 36 -145
136 -145 129z"/>
<path d="M6950 6449 c0 -5 5 -7 10 -4 6 3 10 8 10 11 0 2 -4 4 -10 4 -5 0 -10
-5 -10 -11z"/>
<path d="M5766 6345 c4 -16 7 -41 8 -56 1 -15 4 -30 8 -34 3 -3 4 17 2 46 -4
50 -3 51 20 45 14 -3 27 -2 30 2 3 5 0 9 -7 10 -7 1 -25 4 -40 8 -27 6 -28 5
-21 -21z"/>
<path d="M6596 6021 c-3 -5 1 -11 9 -14 9 -4 12 -1 8 9 -6 16 -10 17 -17 5z"/>
<path d="M5820 5940 c0 -5 5 -10 11 -10 5 0 7 5 4 10 -3 6 -8 10 -11 10 -2 0
-4 -4 -4 -10z"/>
<path d="M5546 5852 c-7 -22 -8 -23 -22 -5 -14 16 -14 16 -4 -6 11 -21 14 -22
27 -8 8 8 13 21 11 29 -3 8 -8 4 -12 -10z"/>
<path d="M6365 5839 c-4 -6 -5 -12 -2 -15 2 -3 7 2 10 11 7 17 1 20 -8 4z"/>
<path d="M5420 5526 c0 -2 8 -10 18 -17 15 -13 16 -12 3 4 -13 16 -21 21 -21
13z"/>
<path d="M5494 5502 c-8 -13 -8 -20 1 -29 10 -9 15 -9 19 3 3 9 3 22 -2 30 -6
11 -9 10 -18 -4z"/>
<path d="M5774 5509 c-4 -7 -3 -9 4 -5 5 3 13 0 15 -6 4 -9 6 -10 6 -1 1 17
-16 25 -25 12z"/>
<path d="M3951 4086 c-80 -44 -57 -174 33 -192 69 -13 136 57 121 127 -14 63
-96 97 -154 65z"/>
<path d="M2489 2543 c8 -16 8 -23 -2 -26 -9 -4 -9 -6 0 -6 21 -2 26 20 8 37
-16 16 -17 16 -6 -5z"/>
<path d="M2509 2498 c-11 -8 -10 -9 4 -4 9 3 17 1 17 -4 0 -6 5 -10 10 -10 6
0 10 4 10 9 0 14 -26 20 -41 9z"/>
<path d="M2544 2465 c-18 -13 -18 -14 1 -29 14 -10 24 -11 32 -4 7 5 17 7 22
3 6 -3 9 0 6 7 -10 26 -41 38 -61 23z m31 -4 c3 -5 2 -12 -3 -15 -5 -3 -9 1
-9 9 0 17 3 19 12 6z"/>
<path d="M1630 2153 c0 -6 8 -17 18 -24 16 -13 16 -13 2 6 -8 11 -16 22 -17
24 -2 2 -3 0 -3 -6z"/>
<path d="M1035 1540 c3 -5 8 -10 11 -10 2 0 4 5 4 10 0 6 -5 10 -11 10 -5 0
-7 -4 -4 -10z"/>
</g>
</svg>
